<svg width="300" height="100" viewBox="0 0 611 330" fill="none" xmlns="http://www.w3.org/2000/svg">
<path d="M484.378 169.564V251.714C483.933 294.888 450.462 330 408.909 330C367.356 330 333.376 294.888 332.931 251.714V147.244C332.931 136.85 332.04 126.457 329.558 116.396C315.877 61.8958 267.77 23.3192 210.563 23.3192C153.357 23.3192 105.059 61.8958 91.3141 116.396C88.7687 126.457 87.8779 136.917 87.8779 147.311V251.781H65.9243V205.809H22.0172V251.781H0V136.717H22.0172V182.823H65.9243V136.717C71.5877 58.6978 134.139 0 210.563 0C286.987 0 349.284 58.6978 354.948 136.651V251.714C355.393 282.029 379.574 306.681 408.909 306.681C438.244 306.681 461.979 282.029 462.425 251.714V169.564C462.425 167.965 462.17 166.432 461.534 165.1C460.961 163.701 460.198 162.435 459.179 161.435C458.161 160.369 457.016 159.57 455.68 158.97C454.343 158.371 452.943 158.104 451.416 158.104C449.889 158.104 448.425 158.371 447.089 158.97C445.753 159.57 444.607 160.369 443.653 161.435C442.635 162.435 441.871 163.701 441.298 165.1C440.726 166.432 440.471 167.965 440.471 169.564V251.714H418.454V169.564C418.454 167.965 418.199 166.432 417.627 165.1C417.054 163.701 416.29 162.435 415.272 161.435C414.254 160.369 413.109 159.57 411.772 158.97C410.436 158.371 409.036 158.104 407.509 158.104C405.982 158.104 404.518 158.371 403.182 158.97C401.909 159.57 400.7 160.369 399.746 161.435C398.728 162.435 397.964 163.701 397.391 165.1C396.819 166.432 396.564 167.965 396.564 169.564V251.714H374.547V169.564C374.547 164.833 375.438 160.303 377.092 156.105C378.81 151.908 381.165 148.243 384.155 145.112C387.146 141.981 390.646 139.515 394.655 137.783C398.664 135.984 402.927 135.051 407.509 135.051C411.582 135.051 415.527 135.851 419.281 137.383C423.099 138.849 426.472 141.114 429.463 143.979C432.517 141.114 435.89 138.849 439.644 137.383C443.398 135.851 447.344 135.051 451.416 135.051C455.934 135.051 460.198 135.984 464.206 137.783C468.215 139.515 471.715 141.981 474.706 145.112C477.697 148.243 480.051 151.908 481.769 156.105C483.487 160.303 484.378 164.833 484.378 169.564Z" fill="url(#paint0_linear_1437_1177)"/>
<path d="M215.056 194.427C215.056 199.928 214.363 205.227 213.039 210.325C211.716 215.424 209.825 220.187 207.368 224.614C204.91 229.041 202.011 233.133 198.545 236.756C195.079 240.378 191.298 243.531 187.138 246.147C182.979 248.764 178.505 250.776 173.715 252.185C168.926 253.593 163.947 254.331 158.78 254.331C153.612 254.331 148.634 253.593 143.844 252.185C139.055 250.776 134.58 248.764 130.421 246.147C126.262 243.531 122.418 240.378 119.015 236.756C115.611 233.133 112.65 229.041 110.192 224.614C107.734 220.187 105.843 215.424 104.52 210.325C103.197 205.227 102.503 199.928 102.503 194.427C102.503 188.926 103.197 183.627 104.52 178.528C105.843 173.43 107.734 168.667 110.192 164.24C112.65 159.812 115.611 155.788 119.015 152.098C122.418 148.408 126.262 145.323 130.421 142.706C134.58 140.09 139.055 138.145 143.844 136.669C148.634 135.26 153.612 134.522 158.78 134.522C163.947 134.522 168.926 135.26 173.715 136.669C178.505 138.078 182.979 140.09 187.138 142.706C191.298 145.323 195.079 148.408 198.545 152.098C202.011 155.788 204.91 159.812 207.368 164.24C209.825 168.667 211.653 173.43 213.039 178.528C214.363 183.627 215.056 188.926 215.056 194.427ZM193.44 194.427C193.44 189.396 192.558 184.566 190.731 180.071C188.903 175.577 186.445 171.686 183.357 168.332C180.269 164.978 176.551 162.362 172.329 160.483C168.107 158.538 163.632 157.599 158.843 157.599C154.053 157.599 149.516 158.538 145.357 160.483C141.134 162.429 137.479 165.045 134.328 168.332C131.177 171.619 128.719 175.577 126.892 180.071C125.064 184.566 124.182 189.329 124.182 194.427C124.182 199.525 125.064 204.221 126.892 208.715C128.719 213.143 131.177 217.034 134.328 220.388C137.479 223.742 141.134 226.358 145.357 228.303C149.579 230.249 154.053 231.188 158.843 231.188C163.632 231.188 168.107 230.249 172.329 228.303C176.551 226.358 180.206 223.742 183.357 220.388C186.508 217.034 188.903 213.143 190.731 208.715C192.558 204.288 193.44 199.525 193.44 194.427Z" fill="url(#paint1_linear_1437_1177)"/>
<path d="M317.559 194.46C317.559 199.748 316.934 204.903 315.622 209.789C314.372 214.676 312.497 219.295 310.185 223.579C307.811 227.863 304.998 231.746 301.749 235.293C298.499 238.841 294.875 241.853 290.813 244.33C286.814 246.874 282.502 248.815 277.94 250.154C273.378 251.493 268.567 252.229 263.63 252.229H231.135V136.624H263.63C268.567 136.624 273.378 137.293 277.94 138.699C282.502 140.038 286.814 142.046 290.813 144.523C294.813 147.067 298.437 150.079 301.749 153.56C304.998 157.108 307.811 160.99 310.185 165.274C312.56 169.558 314.372 174.11 315.622 179.064C316.934 183.95 317.559 189.105 317.559 194.393V194.46ZM295.937 194.46C295.937 189.707 295.125 185.222 293.438 181.005C291.751 176.788 289.438 173.173 286.501 170.027C283.564 166.881 280.127 164.404 276.19 162.597C272.253 160.789 268.067 159.852 263.567 159.852H252.819V229.135H263.567C268.004 229.135 272.253 228.265 276.19 226.457C280.127 224.65 283.564 222.173 286.501 219.027C289.438 215.881 291.751 212.199 293.438 207.982C295.125 203.765 295.937 199.28 295.937 194.46Z" fill="url(#paint2_linear_1437_1177)"/>
<path d="M611 194.427C611 199.928 610.307 205.227 608.983 210.325C607.66 215.424 605.769 220.187 603.312 224.614C600.854 229.041 597.955 233.133 594.489 236.756C591.023 240.378 587.242 243.531 583.082 246.147C578.923 248.764 574.449 250.776 569.659 252.185C564.87 253.593 559.891 254.331 554.724 254.331C549.556 254.331 544.577 253.593 539.788 252.185C534.999 250.776 530.524 248.764 526.365 246.147C522.206 243.531 518.361 240.378 514.958 236.756C511.555 233.133 508.593 229.041 506.136 224.614C503.678 220.187 501.787 215.424 500.464 210.325C499.14 205.227 498.447 199.928 498.447 194.427C498.447 188.926 499.14 183.627 500.464 178.528C501.787 173.43 503.678 168.667 506.136 164.24C508.593 159.812 511.555 155.788 514.958 152.098C518.361 148.408 522.206 145.323 526.365 142.706C530.524 140.09 534.999 138.145 539.788 136.669C544.577 135.26 549.556 134.522 554.724 134.522C559.891 134.522 564.87 135.26 569.659 136.669C574.449 138.078 578.923 140.09 583.082 142.706C587.242 145.323 591.023 148.408 594.489 152.098C597.955 155.788 600.854 159.812 603.312 164.24C605.769 168.667 607.597 173.43 608.983 178.528C610.307 183.627 611 188.926 611 194.427ZM589.384 194.427C589.384 189.396 588.502 184.566 586.674 180.071C584.847 175.577 582.389 171.686 579.301 168.332C576.213 164.978 572.495 162.362 568.273 160.483C564.05 158.538 559.576 157.599 554.787 157.599C549.997 157.599 545.46 158.538 541.3 160.483C537.078 162.429 533.423 165.045 530.272 168.332C527.121 171.619 524.663 175.577 522.836 180.071C521.008 184.566 520.126 189.329 520.126 194.427C520.126 199.525 521.008 204.221 522.836 208.715C524.663 213.143 527.121 217.034 530.272 220.388C533.423 223.742 537.078 226.358 541.3 228.303C545.523 230.249 549.997 231.188 554.787 231.188C559.576 231.188 564.05 230.249 568.273 228.303C572.495 226.358 576.15 223.742 579.301 220.388C582.452 217.034 584.847 213.143 586.674 208.715C588.502 204.288 589.384 199.525 589.384 194.427Z" fill="url(#paint3_linear_1437_1177)"/>
<defs>
<linearGradient id="paint0_linear_1437_1177" x1="243.194" y1="135.573" x2="243.194" y2="245.924" gradientUnits="userSpaceOnUse">
<stop stop-color="#D75254"/>
<stop offset="1" stop-color="#DF9B3F"/>
</linearGradient>
<linearGradient id="paint1_linear_1437_1177" x1="158.78" y1="134.522" x2="158.78" y2="254.331" gradientUnits="userSpaceOnUse">
<stop stop-color="#D75254"/>
<stop offset="1" stop-color="#DF9B3F"/>
</linearGradient>
<linearGradient id="paint2_linear_1437_1177" x1="274.347" y1="136.624" x2="274.347" y2="252.229" gradientUnits="userSpaceOnUse">
<stop stop-color="#D75254"/>
<stop offset="1" stop-color="#DF9B3F"/>
</linearGradient>
<linearGradient id="paint3_linear_1437_1177" x1="554.724" y1="134.522" x2="554.724" y2="254.331" gradientUnits="userSpaceOnUse">
<stop stop-color="#D75254"/>
<stop offset="1" stop-color="#DF9B3F"/>
</linearGradient>
</defs>
</svg>
